<?xml version="1.0" encoding="UTF-8"?>
<svg width="138px" height="137px" viewBox="0 0 138 137" version="1.1" xmlns="http://www.w3.org/2000/svg" xmlns:xlink="http://www.w3.org/1999/xlink">
    <g stroke="none" stroke-width="1" fill="none" fill-rule="evenodd">
        <g transform="translate(-852.000000, -552.000000)">
            <g transform="translate(852.000000, 552.000000)">
                <ellipse fill="#0F151F" cx="72.5" cy="119" rx="65.5" ry="18"></ellipse>
                <g fill-rule="nonzero">
                    <g transform="translate(24.400000, 58.600000)">
                        <polygon fill="#4F5F77" points="47.8845 -0.0025 6.5085 11.0855 6.5085 35.6375 47.8845 24.5615 89.3325 35.6375 89.3325 11.0855"></polygon>
                        <path d="M47.6445,66.2135 L8.9085,55.8575 C7.3965,55.4615 6.3645,54.1055 6.3645,52.5935 L6.3645,10.9775 L47.6565,22.0535 L47.6565,66.2135 L47.6445,66.2135 Z" fill="#7286A6"></path>
                        <path d="M37.2765,44.3615 L2.5965,35.0375 C0.6765,34.5575 -0.3555,32.5655 0.2085,30.7295 L6.4965,11.0375 L47.7885,22.1135 L41.4045,42.1175 C40.8645,43.8095 39.0405,44.8415 37.2765,44.3615" fill="#A8BBD9"></path>
                        <path d="M47.6445,66.2135 L86.7885,55.9295 C88.3005,55.5335 89.3325,54.1775 89.3325,52.6655 L89.3325,11.0615 L47.6445,22.0655 L47.6445,66.2135 Z" fill="#4F5F77"></path>
                        <path d="M57.6045,44.2175 L92.8365,34.9655 C94.6725,34.4855 95.7885,32.4935 95.2245,30.6575 L89.3325,11.0615 L47.4885,22.0655 L53.4645,41.9135 C54.0165,43.6655 55.8525,44.6975 57.6045,44.2175" fill="#7286A6"></path>
                    </g>
                    <g>
                        <path d="M45.312,8.928 C44.672,8.928 44.256,8.512 44.256,7.872 L44.256,1.056 C44.256,0.416 44.672,9.09494702e-13 45.312,9.09494702e-13 C45.952,9.09494702e-13 46.368,0.416 46.368,1.056 L46.368,7.856 C46.368,8.4 45.952,8.928 45.312,8.928 L45.312,8.928 Z" fill="#02996A"></path>
                        <path d="M53.6,32.528 C52.96,32.528 52.544,32.112 52.544,31.472 L52.544,26.896 C52.544,26.256 52.96,25.84 53.6,25.84 C54.24,25.84 54.656,26.256 54.656,26.896 L54.656,31.472 C54.672,32 54.224,32.528 53.6,32.528 Z" fill="#02996A"></path>
                        <path d="M64.512,35.712 C63.872,35.712 63.456,35.296 63.456,34.656 L63.456,33.472 C63.456,32.832 63.872,32.416 64.512,32.416 C65.152,32.416 65.568,32.832 65.568,33.472 L65.568,34.64 C65.584,35.28 65.04,35.712 64.512,35.712 L64.512,35.712 Z" fill="#02996A"></path>
                        <path d="M132.16,38.576 C131.856,38.576 131.632,38.464 131.408,38.272 C130.992,37.856 130.992,37.216 131.408,36.784 L135.44,32.752 C135.856,32.336 136.496,32.336 136.928,32.752 C137.344,33.168 137.344,33.808 136.928,34.24 L132.896,38.272 C132.688,38.48 132.496,38.576 132.16,38.576 L132.16,38.576 Z" fill="#02996A"></path>
                        <path d="M136.208,38.576 C135.888,38.576 135.68,38.464 135.456,38.272 L131.44,34.24 C131.024,33.824 131.024,33.184 131.44,32.752 C131.856,32.336 132.496,32.336 132.928,32.752 L136.96,36.784 C137.376,37.2 137.376,37.84 136.96,38.272 C136.736,38.48 136.528,38.576 136.208,38.576 L136.208,38.576 Z" fill="#03C588"></path>
                        <path d="M24.576,36.24 C26.592,36.24 28.192,37.824 28.192,39.856 C28.192,41.888 26.592,43.472 24.576,43.472 C22.56,43.472 20.96,41.888 20.96,39.856 C20.96,37.84 22.544,36.24 24.576,36.24 Z M24.576,38.368 C23.712,38.368 23.088,39.008 23.088,39.856 C23.088,40.72 23.728,41.344 24.576,41.344 C25.44,41.344 26.064,40.704 26.064,39.856 C26.064,39.008 25.424,38.368 24.576,38.368 Z" id="形状结合" fill="#FFAB00"></path>
                        <path d="M3.248,25.808 L0.208,22.768 C-0.048,22.512 -0.048,22.112 0.208,21.856 C0.464,21.6 0.864,21.6 1.12,21.856 L4.16,24.896 C4.416,25.152 4.416,25.552 4.16,25.808 C3.904,26.064 3.488,26.064 3.248,25.808 Z" fill="#03C588"></path>
                        <path d="M4.144,22.768 L1.104,25.808 C0.848,26.064 0.448,26.064 0.192,25.808 C-0.064,25.552 -0.064,25.152 0.192,24.896 L3.232,21.856 C3.488,21.6 3.888,21.6 4.144,21.856 C4.4,22.112 4.4,22.528 4.144,22.768 Z" fill="#02996A"></path>
                        <path d="M118.496,18.576 L118.496,14.272 C118.496,13.92 118.784,13.632 119.136,13.632 C119.488,13.632 119.776,13.92 119.776,14.272 L119.776,18.576 C119.776,18.928 119.488,19.216 119.136,19.216 C118.784,19.216 118.496,18.928 118.496,18.576 L118.496,18.576 Z" fill="#FFAB00"></path>
                        <path d="M121.28,17.072 L116.976,17.072 C116.624,17.072 116.336,16.784 116.336,16.432 C116.336,16.08 116.624,15.792 116.976,15.792 L121.28,15.792 C121.632,15.792 121.92,16.08 121.92,16.432 C121.92,16.784 121.632,17.072 121.28,17.072 Z" fill="#FED733"></path>
                        <path d="M48.704,5.536 L41.904,5.536 C41.264,5.536 40.848,5.12 40.848,4.48 C40.848,3.84 41.264,3.424 41.904,3.424 L48.704,3.424 C49.344,3.424 49.76,3.84 49.76,4.48 C49.76,5.104 49.344,5.536 48.704,5.536 Z" fill="#03C588"></path>
                    </g>
                </g>
                <g transform="translate(12.000000, 97.000000)" fill-rule="nonzero">
                    <path d="M29.98155,14.9548017 C29.98155,17.742494 29.2142423,20.352494 27.88155,22.5863401 C27.88155,22.5863401 27.88155,22.5886478 27.8792423,22.5886478 C26.4043128,25.0540215 24.2536085,27.0449546 21.6819346,28.3255709 C19.6035628,29.3607217 17.312666,29.8975951 14.9907808,29.8936694 C6.71193463,29.8936694 2.39567238e-06,23.2048017 2.39567238e-06,14.9548017 C-0.00367358666,11.632543 1.10619763,8.40489779 3.15231923,5.787494 L3.15462691,5.78518629 C5.48014573,2.80356052 8.84734495,0.811847146 12.5803961,0.209801689 C13.3772371,0.0796448944 14.1833807,0.0148138112 14.9907808,0.0159406986 C17.2084731,0.0159406986 19.3130885,0.495955518 21.20655,1.35557092 C23.3651466,2.33941524 25.2608409,3.81920329 26.7392423,5.67441706 C28.6214946,8.03109979 29.7397573,10.9060576 29.9446269,13.9151863 C29.9700115,14.2590324 29.98155,14.6063401 29.98155,14.9548017" fill="#EDEDED"></path>
                    <path d="M13.3442423,9.76710937 L6.23885769,8.56710937 L6.31731923,8.11134015 L13.36155,9.30210938 L18.7407808,8.802494 L16.8461654,0.477494004 L17.2984731,0.373647832 L19.3096269,9.21210937 L13.3442423,9.76710937 Z M24.6403961,26.1598017 L24.17655,26.1598017 L24.17655,22.1213401 L21.4719346,14.0559555 L16.5853961,15.0505709 L10.3246269,22.1559555 L9.97731923,21.8513401 L16.3396269,14.6294171 L21.7811654,13.5217247 L24.6403961,22.047494 L24.6403961,26.1598017 Z M23.4403961,10.2228786 L27.9288577,9.54095552 L27.9980885,9.99672475 L23.5096269,10.6798017 L23.4403961,10.2228786 Z M7.08693463,22.9082632 L4.67655,20.3409555 L2.60424231,13.7951863 L2.52116537,10.962494 L2.98385769,10.9486478 L3.06693463,13.7490325 L5.08616537,20.1021094 L7.42501154,22.5944171 L7.08693463,22.9082632 Z" fill="#B1B2B6"></path>
                    <path d="M12.34155,27.4740325 L12.3080885,27.012494 L20.1000115,26.5682632 L24.6103961,25.7882632 L24.6888577,26.2428786 L20.15655,27.0263401 L12.34155,27.4740325 Z M5.35385769,5.89941706 L4.97308846,5.63518629 L6.07385769,4.06018629 L11.24655,0.707109375 L14.8938577,0.558263232 L14.9134731,1.01980169 L11.3930885,1.16403246 L6.40270386,4.39710938 L5.35385769,5.89941706 Z" id="形状" fill="#B1B2B6"></path>
                    <path d="M21.2077039,1.35441706 L21.1303961,1.50095552 L17.4473192,1.782494 L17.3780885,1.77326323 C15.3579263,1.4980017 13.338307,1.21877039 11.3192423,0.935570918 C11.1046269,0.900955547 12.4869346,0.300955547 12.4869346,0.300955518 L12.5792423,0.209801689 C13.3638577,0.080570918 14.1692423,0.0159555176 14.9896269,0.0159555176 C17.2073192,0.0159555176 19.3119346,0.495955518 21.2053961,1.35441706 M6.68424231,8.397494 L2.83731923,13.7882632 L0.275780771,12.0863401 C0.72527976,9.78951566 1.71087768,7.63132109 3.15231923,5.787494 L3.15462691,5.78518629 C4.46655,5.11134015 6.15116537,4.27364783 6.23539614,4.23095552 L6.23655,4.22864783 L6.68424231,8.397494 L6.68424231,8.397494 Z M29.9446269,13.9151863 L27.6830885,9.762494 L26.7392423,5.67441706 C28.6214946,8.03109979 29.7397573,10.9060576 29.9446269,13.9151863 M28.0950115,21.0990325 L27.88155,22.5863401 C27.88155,22.5863401 27.88155,22.5886478 27.8792423,22.5886478 C26.4043128,25.0540215 24.2536085,27.0449546 21.6819346,28.3255709 L20.1173192,26.7990325 L24.4073192,22.0844171 L28.0950115,21.0990325 L28.0950115,21.0990325 Z M4.00155,24.4971094 L4.88193463,20.2209555 L10.8773192,21.6459555 L13.3523192,27.2917247 L9.06231923,28.6071094 L4.00155,24.4971094 Z M18.3300115,5.95364783 L12.8550115,9.44980169 L15.0646269,16.4271094 L22.51155,16.4271094 L24.0438577,10.3151863 L18.3300115,5.95364783 Z" id="形状" fill="#344D5B"></path>
                </g>
                <g transform="translate(100.000000, 96.000000)" fill-rule="nonzero">
                    <path d="M1.30974097,11.899398 C1.42471375,11.3126322 1.5770363,10.7338066 1.76577891,10.1664539 C3.15054486,6.02510305 6.39175788,2.76924887 10.5268255,1.36583198 C14.6618931,-0.0375849182 19.2152927,0.572824969 22.8347318,3.01577891 L23.2178037,3.27116016 C28.8687658,7.34938519 30.6508513,14.9679951 27.3951113,21.129606 C25.6641766,24.3921695 22.7134521,26.8379922 19.1864283,27.9336921 C18.7189572,28.0804589 18.244006,28.2022413 17.7635899,28.2985225 C14.3264692,28.9599902 10.7662522,28.3091279 7.78547974,26.4743707 L7.27471724,26.1460233 C2.60008052,23.0306638 0.249261417,17.4160163 1.30974097,11.899398 L1.30974097,11.899398 Z" fill="#591800"></path>
                    <path d="M16.6143743,0.516690967 L17.7635899,0.699106152 C19.5754051,1.06823688 21.2979014,1.78697633 22.8347318,2.81512222 C22.9183822,2.8712189 22.9612491,2.97124169 22.944181,3.07050347 C22.7079178,4.31149246 22.3724124,5.53151223 21.9408975,6.71880698 C21.9156501,6.79668228 21.8545991,6.8577333 21.7767238,6.88298066 C21.7074565,6.91583702 21.6270929,6.91583702 21.5578256,6.88298066 C20.6949148,6.34158363 19.7924466,5.8659585 18.858081,5.46014229 C18.2205434,5.18328109 17.5690511,4.93973255 16.9062386,4.73048159 C16.8402357,4.7096903 16.7854956,4.66300421 16.7545483,4.60110966 C16.7236011,4.53921512 16.7190962,4.46741142 16.7420649,4.40213428 C17.0200294,3.20403181 16.8308527,1.94502832 16.2130609,0.881521338 C16.1702472,0.79513974 16.1797283,0.692010053 16.237574,0.614882442 C16.2954197,0.53775483 16.3917695,0.499776665 16.4866837,0.516690967 L16.6143743,0.516690967 Z M4.42904048,5.15003647 C7.15365461,2.07150226 11.0806923,0.327631273 15.1915359,0.370758838 C15.2968772,0.371336546 15.3910548,0.436536422 15.4286757,0.53493252 L15.6475739,1.04569502 C16.2082753,1.98254058 16.3970514,3.09566902 16.1765779,4.16499453 C16.1408534,4.30064992 16.0023969,4.38209495 15.8664721,4.34740972 C13.3056831,3.71167535 10.6313261,3.68668137 8.05910254,4.27444365 C6.90246996,4.5378376 5.79026912,4.96797051 4.75738779,5.55134985 C4.64656816,5.64202045 4.48322806,5.62568644 4.39255745,5.51486681 C4.30188685,5.40404719 4.31822086,5.24070708 4.42904048,5.15003647 L4.42904048,5.15003647 Z" id="形状" fill="#D03D07"></path>
                    <path d="M1.09084277,11.8446735 C1.20875547,11.2268786 1.36719086,10.6175117 1.56512222,10.0205217 L1.67457134,9.71041592 C3.03853376,7.22201779 5.45047407,5.48006088 8.24151768,4.96762129 C10.6413231,4.40620915 13.1383193,4.40620915 15.5381248,4.96762129 C15.6250858,4.98241816 15.6982538,5.04104485 15.7316534,5.12268819 C15.7650529,5.20433153 15.7539546,5.29743082 15.7022984,5.36893472 C13.9511812,7.48994984 11.7269436,9.17062371 9.20831812,10.275903 C7.99609081,10.9013876 6.82063339,11.5956993 5.68770522,12.355436 C4.37852764,13.321725 3.36721066,14.636437 2.7690624,16.1496716 C2.41597969,16.9455409 2.12922149,17.7692081 1.91171104,18.6122766 C1.91171104,18.7533197 1.79737295,18.8676578 1.65632979,18.8676578 C1.51528662,18.8676578 1.40094854,18.7533197 1.40094854,18.6122766 C1.26717741,18.1744801 1.1577283,17.7366837 1.07260122,17.2988873 C0.72643851,15.496694 0.732633114,13.644511 1.09084277,11.8446735 L1.09084277,11.8446735 Z" fill="#D03D07"></path>
                    <path d="M7.25647573,26.5108537 L7.12878511,26.5108537 C5.5825221,25.472716 4.25601812,24.1400134 3.22510034,22.5889274 C2.87312667,22.0631545 2.55625118,21.5147162 2.27654141,20.9471908 C2.25847193,20.8939578 2.25847193,20.8362501 2.27654141,20.7830171 C2.49871831,19.3216662 2.8842028,17.8898667 3.42575703,16.514502 C3.98323585,15.1140312 4.92550862,13.8998274 6.14374316,13.0121306 C7.21943342,12.2946007 8.33385638,11.6369085 9.48194092,11.0420467 C12.163444,9.58272524 14.9543962,8.01395474 16.4319591,5.56959141 C16.4889839,5.45561057 16.6213153,5.40112115 16.7420649,5.44190078 C17.4305729,5.65279471 18.1065905,5.90249489 18.7668734,6.18980298 C19.7296253,6.60636906 20.6569167,7.10051777 21.5395841,7.66736592 C21.6398592,7.73589495 21.6779977,7.86556588 21.6307917,7.97747173 C20.6384987,10.3296741 19.4164745,12.5781987 17.9824881,14.6903502 C15.0144475,19.0693194 11.4953495,23.0482299 7.51185698,26.5290952 C7.42960966,26.5692076 7.33218681,26.5622488 7.25647573,26.5108537 L7.25647573,26.5108537 Z M27.7052171,20.9471908 L27.5592849,21.2390551 C27.3370086,21.6644977 27.0934809,22.0784947 26.8296242,22.4794783 C25.7742489,24.0462766 24.4159373,25.3859811 22.8347318,26.4196461 L21.8861729,27.0033747 C21.7803906,27.0990825 21.6170505,27.0909155 21.5213426,26.9851332 C21.4256348,26.8793508 21.4338017,26.7160107 21.5395841,26.6203028 C23.2493253,24.0392352 24.318688,21.0875441 24.6588836,18.0103064 C24.8921313,16.1904788 25.3899051,14.4144711 26.1364465,12.7385079 C26.1798636,12.6524279 26.268056,12.598135 26.3644655,12.598135 C26.460875,12.598135 26.5490674,12.6524279 26.5924845,12.7385079 L26.7201751,12.9391646 C28.2271907,15.3216544 28.5822325,18.2557734 27.6869755,20.9289493 L27.7052171,20.9471908 Z M28.6355345,10.6407333 C28.7571446,11.0420467 28.8544327,11.4433601 28.9273988,11.8446735 C29.1778913,13.0990059 29.2576602,14.3814452 29.1645385,15.6571507 C29.1645385,15.7981939 29.0502004,15.9125319 28.9091572,15.9125319 C28.7681141,15.9125319 28.653776,15.7981939 28.653776,15.6571507 C28.3758246,14.5628798 27.9460163,13.5129194 27.3768698,12.5378512 L26.9390733,11.826432 C26.8691304,11.7348948 26.8691304,11.6078633 26.9390733,11.5163262 C27.3044403,11.0894471 27.7430258,10.731166 28.2342211,10.4583181 C28.3023252,10.4148932 28.3869577,10.4062457 28.4624369,10.4349997 C28.537916,10.4637536 28.5953435,10.5265193 28.617293,10.6042503 L28.6355345,10.6407333 Z M24.0933966,3.7271981 C25.9305996,5.27126058 27.3485507,7.25388254 28.2159796,9.49151768 C28.2705334,9.61277043 28.2229252,9.75559508 28.1065305,9.81986499 C27.5447312,10.1060311 27.033342,10.4818713 26.5924845,10.9325976 C26.5440619,10.9941025 26.4701067,11.0300027 26.3918278,11.0300027 C26.3135488,11.0300027 26.2395936,10.9941025 26.1911711,10.9325976 C25.2272822,9.69551298 24.0978955,8.59681616 22.8347318,7.66736592 C22.7344567,7.59883687 22.6963182,7.46916594 22.7435243,7.35726011 C23.1572494,6.24504599 23.4924989,5.10519761 23.7468077,3.94609634 C23.7633956,3.85569146 23.8272851,3.78117427 23.9140976,3.75097859 C24.0009102,3.72078292 24.0972524,3.73956732 24.1663626,3.80016416 L24.0933966,3.7271981 Z" fill="#D03D07"></path>
                    <path d="M19.1864283,28.1708318 C15.586738,29.2909243 11.6896619,28.9366446 8.3509668,27.1857898 C8.28222879,27.1380656 8.24123241,27.0596935 8.24123241,26.9760124 C8.24123241,26.8923313 8.28222879,26.8139592 8.3509668,26.766235 C12.2587487,23.2814211 15.7095211,19.3157909 18.6209413,14.963973 C20.0418973,12.8888168 21.2634359,10.6839397 22.2692448,8.37878511 C22.2977811,8.30129143 22.3620279,8.24237939 22.4416989,8.22065094 C22.5213699,8.19892249 22.6066302,8.21705984 22.6705582,8.26933599 C23.8918179,9.17600827 24.9788156,10.2507235 25.8993068,11.4616016 C25.9603764,11.5493061 25.9603764,11.6657614 25.8993068,11.7534659 C24.9203596,13.634875 24.3016864,15.6826832 24.075155,17.7914083 C23.3819773,21.2937796 22.7070412,25.0150493 19.1864283,28.1708318 L19.1864283,28.1708318 Z" fill="#D03D07"></path>
                    <path d="M23.0353885,3.39885078 C22.8002135,4.5330257 22.4831978,5.64867714 22.0868296,6.73704854 C22.0615823,6.81492383 22.0005313,6.87597482 21.922656,6.90122217 C21.8533887,6.93407852 21.7730251,6.93407852 21.7037578,6.90122217 C20.8409855,6.35958458 19.9384988,5.88394969 19.0040131,5.47838379 C18.3664756,5.2015226 17.7149832,4.95797405 17.0521708,4.7487231 C16.9861678,4.7279318 16.9314277,4.68124571 16.9004805,4.61935117 C16.8695332,4.55745663 16.8650283,4.48565293 16.8879971,4.42037578 C17.1443943,3.47938042 17.0604145,2.47808166 16.6508574,1.59294053 C18.9048447,1.59466568 21.1144532,2.21966922 23.0353885,3.39885078 L23.0353885,3.39885078 Z M15.8847136,1.61118203 C16.3014004,2.42074959 16.4115305,3.35361691 16.1948194,4.2379606 C16.1590949,4.37361596 16.0206384,4.45506098 15.8847136,4.42037578 C13.7181642,3.85862009 11.463237,3.72233329 9.24480117,4.0190624 C11.1728965,2.5804522 13.4826694,1.74284221 15.8847136,1.61118203 L15.8847136,1.61118203 Z M8.1320686,4.98586284 C10.531874,4.4244507 13.0288703,4.4244507 15.4286757,4.98586284 C15.5156367,5.00065974 15.5888047,5.05928643 15.6222042,5.14092975 C15.6556037,5.22257307 15.6445054,5.31567233 15.5928493,5.38717622 C13.8417321,7.50819134 11.6174945,9.18886521 9.09886904,10.2941445 C7.92439085,10.9173144 6.78556909,11.6054795 5.68770522,12.355436 C5.19372418,12.7044828 4.74087887,13.1083718 4.33783291,13.5593761 C4.41455544,10.311227 5.77955491,7.22685327 8.1320686,4.98586284 L8.1320686,4.98586284 Z" id="形状" fill="#E4511B"></path>
                    <path d="M4.37431597,14.6721087 C4.86919813,13.9605419 5.48690092,13.3428391 6.19846772,12.8479569 C7.27415796,12.1304271 8.38858091,11.4727348 9.53666543,10.877873 C12.2181686,9.41855161 15.0091208,7.8497811 16.4866837,5.40541772 C16.5437084,5.29143689 16.6760399,5.23694747 16.7967895,5.2777271 C17.4852975,5.48862105 18.161315,5.73832124 18.8215979,6.02562935 C19.7711108,6.49736051 20.6801764,7.04646054 21.5395841,7.66736592 C21.6398592,7.73589495 21.6779977,7.86556588 21.6307917,7.97747173 C20.6384987,10.3296741 19.4164745,12.5781987 17.9824881,14.6903502 C15.6852355,18.1335659 13.0316532,21.3252017 10.0656695,24.2124225 C6.75593714,22.1216582 4.64179272,18.5777559 4.37431597,14.6721087 L4.37431597,14.6721087 Z M22.8347318,24.3948376 C23.7261265,22.3580157 24.3396713,20.210609 24.6588836,18.0103064 C24.8921313,16.1904788 25.3899051,14.4144711 26.1364465,12.7385079 C26.1798636,12.6524279 26.268056,12.598135 26.3644655,12.598135 C26.460875,12.598135 26.5490674,12.6524279 26.5924845,12.7385079 L26.7201751,12.9391646 C27.6529096,14.4222697 28.1985763,16.1157182 28.3071872,17.8643743 C27.3183068,20.6230734 25.3779055,22.938619 22.8347318,24.3948376 L22.8347318,24.3948376 Z M28.726742,15.8395659 C28.7125479,15.7919573 28.7125479,15.7412423 28.726742,15.6936337 C28.4487907,14.5993628 28.0189823,13.5494024 27.4498358,12.5743342 L27.0120394,11.862915 C26.9420965,11.7713779 26.9420965,11.6443463 27.0120394,11.5528092 C27.3774064,11.1259301 27.8159919,10.767649 28.3071872,10.4948012 C28.3604201,10.4767317 28.4181279,10.4767317 28.4713608,10.4948012 C28.9697016,12.243835 29.0755922,14.0813475 28.7814666,15.8760489 L28.726742,15.8395659 Z M28.161255,9.69217437 C27.5992839,9.97806162 27.0878517,10.3539335 26.647209,10.804907 C26.5987865,10.8664119 26.5248313,10.902312 26.4465523,10.902312 C26.3682734,10.902312 26.2943182,10.8664119 26.2458957,10.804907 C25.2564015,9.6091925 24.1088221,8.55366494 22.8347318,7.66736592 C22.7344567,7.59883687 22.6963182,7.46916594 22.7435243,7.35726011 C23.1572494,6.24504599 23.4924989,5.10519761 23.7468077,3.94609634 C25.7613183,5.37532806 27.2994164,7.37739781 28.161255,9.69217437 L28.161255,9.69217437 Z" id="形状" fill="#E4511B"></path>
                    <path d="M10.649398,24.5772528 C13.6366191,21.6614914 16.3085299,18.4393015 18.6209413,14.963973 C20.0418973,12.8888168 21.2634359,10.6839397 22.2692448,8.37878511 C22.2977811,8.30129143 22.3620279,8.24237939 22.4416989,8.22065094 C22.5213699,8.19892249 22.6066302,8.21705984 22.6705582,8.26933599 C23.8918179,9.17600827 24.9788156,10.2507235 25.8993068,11.4616016 C25.9603764,11.5493061 25.9603764,11.6657614 25.8993068,11.7534659 C24.9203596,13.634875 24.3016864,15.6826832 24.075155,17.7914083 C23.7652541,20.272164 23.0244635,22.6797335 21.8861729,24.9056001 C18.3204989,26.561491 14.1779546,26.4123323 10.7406056,24.5042868 L10.649398,24.5772528 Z" fill="#E4511B"></path>
                    <path d="M22.6887997,4.85817222 C22.5185455,5.4662228 22.3178889,6.07427339 22.0868296,6.68232397 C22.0615823,6.76019926 22.0005313,6.82125026 21.922656,6.84649761 C21.8533887,6.87935396 21.7730251,6.87935396 21.7037578,6.84649761 C20.9253659,6.36024739 20.114786,5.92753182 19.2776359,5.55134985 C20.2240533,4.75777952 21.5077142,4.49692866 22.6887997,4.85817222 L22.6887997,4.85817222 Z M18.7668734,6.13507842 C19.7316131,6.5688472 20.6589852,7.08134232 21.5395841,7.66736592 C21.6398592,7.73589495 21.6779977,7.86556588 21.6307917,7.97747173 C20.8916017,9.7643253 20.0133121,11.4904083 19.0040131,13.1398212 C18.1626032,12.1128488 17.716171,10.8188427 17.7453484,9.49151768 C17.7082685,8.29091484 18.0672324,7.11146186 18.7668734,6.13507842 L18.7668734,6.13507842 Z M25.3703028,14.8180409 C25.5605242,14.1000431 25.8233407,13.4032739 26.1546881,12.7385079 C26.1981051,12.6524279 26.2862975,12.598135 26.3827071,12.598135 C26.4791166,12.598135 26.567309,12.6524279 26.610726,12.7385079 L26.7384167,12.9391646 L27.0120394,13.4316855 C26.6402766,14.0686577 26.0605418,14.5582115 25.3703028,14.8180409 L25.3703028,14.8180409 Z M27.3586282,12.5560927 L26.9208318,11.8446735 C26.8508889,11.7531364 26.8508889,11.6261048 26.9208318,11.5345677 C27.0813442,11.3430904 27.2583585,11.166076 27.4498358,11.0055637 C27.5055178,11.5238911 27.4746956,12.0478682 27.3586282,12.5560927 L27.3586282,12.5560927 Z M27.3586282,10.2029369 C27.081279,10.3948222 26.8245304,10.6148924 26.5924845,10.8596315 C26.5440619,10.9211364 26.4701067,10.9570366 26.3918278,10.9570366 C26.3135488,10.9570366 26.2395936,10.9211364 26.1911711,10.8596315 C25.2222286,9.64832207 24.0930712,8.57439523 22.8347318,7.66736592 C22.7344567,7.59883687 22.6963182,7.46916594 22.7435243,7.35726011 C23.0232275,6.6154384 23.2603673,5.8918582 23.4549435,5.18651953 C24.493473,5.67032908 25.3913247,6.41121375 26.0634805,7.3390186 C26.6894073,8.19335166 27.1304932,9.16871072 27.3586282,10.2029369 L27.3586282,10.2029369 Z M19.5147756,13.6505837 C20.5398103,11.9885181 21.4362576,10.250508 22.1962787,8.45175117 C22.224815,8.37425748 22.2890618,8.31534544 22.3687328,8.293617 C22.4484038,8.27188856 22.5336641,8.29002593 22.5975921,8.3423021 C23.8188519,9.24897437 24.9058495,10.3236896 25.8263408,11.5345677 C25.8874103,11.6222722 25.8874103,11.7387275 25.8263408,11.826432 C25.2827061,12.8081179 24.8891876,13.8656989 24.6588836,14.963973 C24.2500115,15.041137 23.8345271,15.0777974 23.4184604,15.0734221 C21.9826203,15.1191423 20.5844318,14.6095222 19.5147756,13.6505837 L19.5147756,13.6505837 Z" id="形状" fill="#F6632D"></path>
                </g>
                <g transform="translate(80.000000, 112.000000)" fill-rule="nonzero">
                    <path d="M8.6759375,9.5153125 C7.4059375,13.7653125 4.6809375,17.1778125 3.1334375,16.9253125 C-0.3165625,16.3628125 0.0734375,10.4128125 0.6934375,6.6003125 C1.3159375,2.7903125 3.0034375,-0.0346875 6.5934375,0.5503125 C11.5234375,1.3528125 9.7834375,5.8178125 8.6759375,9.5153125 Z M17.9959375,9.5153125 C19.2659375,13.7653125 22.1859375,17.1653125 23.7334375,16.9128125 C27.1834375,16.3503125 26.5984375,10.4103125 25.9759375,6.6003125 C25.3534375,2.7903125 23.6659375,-0.0346875 20.0759375,0.5503125 C15.1459375,1.3528125 16.8884375,5.8178125 17.9959375,9.5153125 Z" fill="#FFFFFF"></path>
                    <path d="M20.1634375,12.9303125 C20.1634375,12.9303125 17.8584375,11.6803125 13.3784375,11.6803125 C9.2634375,11.6803125 6.5934375,12.9303125 6.5934375,12.9303125 L7.6159375,0.8028125 C7.6159375,0.8028125 10.6559375,2.1753125 13.3784375,2.1753125 C16.1784375,2.1753125 18.8909375,0.8628125 18.8909375,0.8628125 L20.1634375,12.9303125 Z" fill="#FFFFFF"></path>
                    <path d="M2.2434375,5.6753125 C2.2434375,7.48680648 3.71194352,8.9553125 5.5234375,8.9553125 C7.33493148,8.9553125 8.8034375,7.48680648 8.8034375,5.6753125 C8.8034375,4.50348135 8.17827306,3.4206647 7.16343752,2.83474912 C6.14860198,2.24883354 4.89827302,2.24883354 3.88343748,2.83474912 C2.86860194,3.4206647 2.2434375,4.50348135 2.2434375,5.6753125 L2.2434375,5.6753125 Z" fill="#FFFFFF"></path>
                    <path d="M2.8134375,5.6753125 C2.8134375,7.17200417 4.02674583,8.3853125 5.5234375,8.3853125 C7.02012917,8.3853125 8.2334375,7.17200417 8.2334375,5.6753125 C8.2334375,4.17862083 7.02012917,2.9653125 5.5234375,2.9653125 C4.02674583,2.9653125 2.8134375,4.17862083 2.8134375,5.6753125 Z" fill="#665F57"></path>
                    <path d="M3.6609375,5.6753125 C3.6609375,6.70394285 4.49480715,7.5378125 5.5234375,7.5378125 C6.55206785,7.5378125 7.3859375,6.70394285 7.3859375,5.6753125 C7.3859375,4.64668215 6.55206785,3.8128125 5.5234375,3.8128125 C4.49480715,3.8128125 3.6609375,4.64668215 3.6609375,5.6753125 Z" fill="#535353"></path>
                    <path d="M3.6609375,5.6753125 C3.6609375,6.70394285 4.49480715,7.5378125 5.5234375,7.5378125 C6.55206785,7.5378125 7.3859375,6.70394285 7.3859375,5.6753125 C7.3859375,4.64668215 6.55206785,3.8128125 5.5234375,3.8128125 C4.49480715,3.8128125 3.6609375,4.64668215 3.6609375,5.6753125 Z" fill="#4A4A4A"></path>
                    <path d="M3.6609375,5.6753125 C3.6609375,6.70394285 4.49480715,7.5378125 5.5234375,7.5378125 C6.55206785,7.5378125 7.3859375,6.70394285 7.3859375,5.6753125 C7.3859375,4.64668215 6.55206785,3.8128125 5.5234375,3.8128125 C4.49480715,3.8128125 3.6609375,4.64668215 3.6609375,5.6753125 Z" fill="#4A4A4A"></path>
                    <path d="M3.6609375,5.6753125 C3.6609375,6.70394285 4.49480715,7.5378125 5.5234375,7.5378125 C6.55206785,7.5378125 7.3859375,6.70394285 7.3859375,5.6753125 C7.3859375,4.64668215 6.55206785,3.8128125 5.5234375,3.8128125 C4.49480715,3.8128125 3.6609375,4.64668215 3.6609375,5.6753125 Z" fill="#4A4A4A"></path>
                    <path d="M12.1034375,4.3353125 C12.1034375,5.03947556 12.6742744,5.6103125 13.3784375,5.6103125 C14.0826006,5.6103125 14.6534375,5.03947556 14.6534375,4.3353125 C14.6534375,3.63114944 14.0826006,3.0603125 13.3784375,3.0603125 C12.6742744,3.0603125 12.1034375,3.63114944 12.1034375,4.3353125 L12.1034375,4.3353125 Z" fill="#C0C5C8"></path>
                    <path d="M17.9359375,5.6753125 C17.9359375,7.48680648 19.4044435,8.9553125 21.2159375,8.9553125 C23.0274315,8.9553125 24.4959375,7.48680648 24.4959375,5.6753125 C24.4959375,3.86381852 23.0274315,2.3953125 21.2159375,2.3953125 C19.4044435,2.3953125 17.9359375,3.86381852 17.9359375,5.6753125 L17.9359375,5.6753125 Z" fill="#D5DDE0"></path>
                    <path d="M20.1259375,3.8653125 C20.1259375,4.25473201 20.3336903,4.61457048 20.6709375,4.80928024 C21.0081847,5.00399001 21.4236903,5.00399001 21.7609375,4.80928024 C22.0981847,4.61457048 22.3059375,4.25473201 22.3059375,3.8653125 C22.3059375,3.26332212 21.8179279,2.7753125 21.2159375,2.7753125 C20.6139471,2.7753125 20.1259375,3.26332212 20.1259375,3.8653125 L20.1259375,3.8653125 Z" fill="#FFFFFF"></path>
                    <path d="M20.4484375,3.8653125 C20.4484375,4.28919105 20.792059,4.6328125 21.2159375,4.6328125 C21.639816,4.6328125 21.9834375,4.28919105 21.9834375,3.8653125 C21.9834375,3.44143395 21.639816,3.0978125 21.2159375,3.0978125 C20.792059,3.0978125 20.4484375,3.44143395 20.4484375,3.8653125 L20.4484375,3.8653125 Z" fill="#F15B5D"></path>
                    <path d="M20.1259375,7.3553125 C20.1259375,7.74473201 20.3336903,8.10457048 20.6709375,8.29928024 C21.0081847,8.49399001 21.4236903,8.49399001 21.7609375,8.29928024 C22.0981847,8.10457048 22.3059375,7.74473201 22.3059375,7.3553125 C22.3059375,6.75332212 21.8179279,6.2653125 21.2159375,6.2653125 C20.6139471,6.2653125 20.1259375,6.75332212 20.1259375,7.3553125 L20.1259375,7.3553125 Z" fill="#FFFFFF"></path>
                    <path d="M20.4484375,7.3553125 C20.4484375,7.77919105 20.792059,8.1228125 21.2159375,8.1228125 C21.639816,8.1228125 21.9834375,7.77919105 21.9834375,7.3553125 C21.9834375,6.93143395 21.639816,6.5878125 21.2159375,6.5878125 C20.792059,6.5878125 20.4484375,6.93143395 20.4484375,7.3553125 L20.4484375,7.3553125 Z" fill="#F5C83B"></path>
                    <path d="M21.8709375,5.6103125 C21.8709375,5.99883884 22.0782138,6.357852 22.4146875,6.55211518 C22.7511612,6.74637836 23.1657138,6.74637836 23.5021875,6.55211518 C23.8386612,6.357852 24.0459375,5.99883884 24.0459375,5.6103125 C24.0459375,5.22178616 23.8386612,4.862773 23.5021875,4.66850982 C23.1657138,4.47424664 22.7511612,4.47424664 22.4146875,4.66850982 C22.0782138,4.862773 21.8709375,5.22178616 21.8709375,5.6103125 L21.8709375,5.6103125 Z" fill="#FFFFFF"></path>
                    <path d="M22.1934375,5.6103125 C22.1934375,6.03419105 22.537059,6.3778125 22.9609375,6.3778125 C23.384816,6.3778125 23.7284375,6.03419105 23.7284375,5.6103125 C23.7284375,5.18643395 23.384816,4.8428125 22.9609375,4.8428125 C22.537059,4.8428125 22.1934375,5.18643395 22.1934375,5.6103125 Z" fill="#33BA78"></path>
                    <path d="M18.3859375,5.6103125 C18.3859375,6.21092217 18.8728278,6.6978125 19.4734375,6.6978125 C20.0740472,6.6978125 20.5609375,6.21092217 20.5609375,5.6103125 C20.5609375,5.00970283 20.0740472,4.5228125 19.4734375,4.5228125 C18.8728278,4.5228125 18.3859375,5.00970283 18.3859375,5.6103125 L18.3859375,5.6103125 Z" fill="#FFFFFF"></path>
                    <path d="M18.7034375,5.6103125 C18.7034375,6.03419105 19.047059,6.3778125 19.4709375,6.3778125 C19.894816,6.3778125 20.2384375,6.03419105 20.2384375,5.6103125 C20.2384375,5.18643395 19.894816,4.8428125 19.4709375,4.8428125 C19.047059,4.8428125 18.7034375,5.18643395 18.7034375,5.6103125 Z" fill="#2A9ED9"></path>
                    <path d="M16.4134375,9.0953125 C16.4134375,9.29422487 16.3344199,9.4849903 16.1937676,9.62564259 C16.0531153,9.76629487 15.8623499,9.8453125 15.6634375,9.8453125 L11.1484375,9.8453125 C10.7342239,9.8453125 10.3984375,9.50952606 10.3984375,9.0953125 C10.3984375,8.68109894 10.7342239,8.3453125 11.1484375,8.3453125 L15.6659375,8.3453125 C16.0791744,8.34668996 16.4134375,8.68207329 16.4134375,9.0953125 Z" fill="#D5DFE1"></path>
                    <path d="M13.1434375,9.09530624 C13.1434375,9.37145487 12.9195799,9.59530624 12.6434375,9.59530624 L11.2059375,9.59530624 C10.9297951,9.59530624 10.7059375,9.37145487 10.7059375,9.09530624 C10.7059375,8.8203125 10.9309375,8.59530624 11.2059375,8.59530624 L12.6409375,8.59530624 C12.7739784,8.59464729 12.9017985,8.6470319 12.9961081,8.74087228 C13.0904177,8.83471267 13.1434375,8.96226996 13.1434375,9.09530624 Z" fill="#4A4A4A"></path>
                    <path d="M16.1009375,9.0953125 C16.1009375,9.37145487 15.8770799,9.5953125 15.6009375,9.5953125 L14.1659375,9.5953125 C13.8897951,9.5953125 13.6659375,9.37145487 13.6659375,9.0953125 C13.6659375,8.8203125 13.8909375,8.5953125 14.1659375,8.5953125 L15.6009375,8.5953125 C15.8770799,8.5953125 16.1009375,8.81917013 16.1009375,9.0953125 Z" fill="#4A4A4A"></path>
                </g>
            </g>
        </g>
    </g>
</svg>