<?xml version="1.0" encoding="UTF-8"?>
<svg width="14px" height="14px" viewBox="0 0 14 14" version="1.1" xmlns="http://www.w3.org/2000/svg" xmlns:xlink="http://www.w3.org/1999/xlink">
    <g stroke="none" stroke-width="1" fill="currentColor" fill-rule="evenodd">
        <g transform="translate(-493.000000, -199.000000)" fill="currentColor" fill-rule="nonzero">
            <path d="M504.879,199 L498.362,199 C497.189039,199.003473 496.240223,199.955734 496.241,201.1287 L496.241,202.241 L494.806,202.241 C493.808328,202.243699 493.000768,203.052824 493,204.0505 L493,211.1905 C493.000768,212.188175 493.808328,212.997301 494.806,213 L501.946,213 C502.946086,213.000387 503.757455,212.190585 503.759,211.1905 L503.759,209.759 L504.844,209.759 C506.025377,209.766764 506.989987,208.81656 507,207.6352 L507,201.1252 C506.999232,199.953555 506.050642,199.0034 504.879,199.0007 L504.879,199 Z M502.723,211.1905 C502.719538,211.617049 502.372563,211.960899 501.946,211.9605 L494.806,211.9605 C494.381853,211.957826 494.038674,211.614647 494.036,211.1905 L494.036,204.0505 C494.038674,203.626353 494.381853,203.283174 494.806,203.2805 L501.946,203.2805 C502.372563,203.280101 502.719538,203.623951 502.723,204.0505 L502.723,211.1905 Z M505.964,207.6359 C505.963164,207.929704 505.84382,208.210743 505.632995,208.415375 C505.42217,208.620008 505.137699,208.730921 504.844,208.723 L503.759,208.723 L503.759,204.0505 C503.757455,203.050415 502.946086,202.240612 501.946,202.241 L497.277,202.241 L497.277,201.128 C497.277,200.527628 497.761641,200.039849 498.362,200.036 L504.879,200.036 C505.475683,200.044683 505.956855,200.527096 505.964,201.1238 L505.964,207.6338 L505.964,207.6359 Z" id="形状"></path>
        </g>
    </g>
</svg>