<?xml version="1.0" encoding="UTF-8"?>
<svg width="40px" height="40px" viewBox="0 0 40 40" version="1.1" xmlns="http://www.w3.org/2000/svg" xmlns:xlink="http://www.w3.org/1999/xlink">
    <g id="页面-1" stroke="none" stroke-width="1" fill="none" fill-rule="evenodd">
        <g id="我的最爱备份-2" transform="translate(-355.000000, -1541.000000)" fill="#6F7C9B" fill-rule="nonzero">
            <g id="jiazai-2" transform="translate(355.000000, 1541.000000)">
                <path d="M30.4015957,35.0545213 C30.8257979,35.7712766 30.5864362,36.7273936 29.8457447,37.1303191 C29.4993903,37.3342934 29.0855249,37.3903097 28.6974101,37.2857451 C28.3092954,37.1811805 27.979586,36.9248327 27.7825798,36.5744681 C27.3371011,35.8583777 27.5970745,34.9235372 28.3138298,34.4993351 C29.0443572,34.0813964 29.9751627,34.3289195 30.4015957,35.0545213 L30.4015957,35.0545213 Z M21.4368351,38.2945479 C21.4368351,39.1216755 20.7526596,39.8144947 19.8929521,39.8144947 C19.0544184,39.8123024 18.3751976,39.1330816 18.3730053,38.2945479 L18.3730053,37.2287234 C18.374825,36.389495 19.0537297,35.7091053 19.8929521,35.7054521 C20.7406915,35.7054521 21.4368351,36.3803191 21.4368351,37.2287234 L21.4368351,38.2945479 Z M12.0485372,36.5777926 C11.8487193,36.9318245 11.515243,37.1909118 11.1228058,37.2970198 C10.7303686,37.4031278 10.3117689,37.3473885 9.96077128,37.1422872 C9.60493564,36.944178 9.34426371,36.6106735 9.23796312,36.217524 C9.13166253,35.8243746 9.18875635,35.4049519 9.3962766,35.0545213 L10.5279255,33.0744681 C10.9617286,32.3461837 11.896639,32.0958718 12.6363032,32.5099734 C13.3530585,32.9341755 13.6156915,33.880984 13.1795213,34.5977394 L12.0485372,36.5777926 L12.0485372,36.5777926 Z M4.76529255,30.4261968 C4.02792553,30.8384309 3.08111702,30.5904255 2.6775266,29.8617021 C2.24468085,29.1449468 2.49268617,28.1981383 3.22074468,27.7739362 L6.26396277,26.012633 C6.99268617,25.6097074 7.93617021,25.8357713 8.35172872,26.5771277 C8.76396277,27.293883 8.51263298,28.2406915 7.78723404,28.6648936 L4.76529255,30.4261968 Z M1.52792553,21.4375053 C1.12448561,21.4385631 0.737263211,21.2787677 0.451987117,20.9934916 C0.166711022,20.7082155 0.00691563507,20.3209931 0.00792612566,19.9175532 C0.0046089656,19.5123149 0.163278253,19.1225248 0.448708942,18.8348466 C0.734139632,18.5471685 1.1226733,18.3854469 1.52792553,18.385633 L6.26662234,18.385633 C6.67006226,18.3845752 7.05728466,18.5443706 7.34256076,18.8296467 C7.62783685,19.1149228 7.78763224,19.5021452 7.78662746,19.9055851 C7.79011842,20.3108771 7.63150713,20.7007713 7.34603754,20.9884887 C7.06056794,21.2762061 6.67192969,21.4378705 6.26662234,21.4375053 L1.52792553,21.4375053 Z M3.22406915,12.037234 C2.48337766,11.625 2.24468085,10.6901596 2.68085106,9.96143617 C3.0837766,9.22406915 4.02792553,8.97273936 4.76861702,9.39694149 L9.9168883,12.3863032 C10.6456117,12.8011968 10.8843085,13.7327128 10.481383,14.4527926 C10.058455,15.1801082 9.12908994,15.4317927 8.39694149,15.0172872 L3.22406915,12.037234 Z M9.3962766,4.75664894 L12.9827128,10.9827128 C13.418883,11.7114362 14.3537234,11.9707447 15.0791223,11.5378989 C15.8078457,11.1256649 16.0465426,10.1795213 15.6223404,9.45079787 L12.0239362,3.23670213 C11.6117021,2.51662234 10.6775266,2.25731383 9.96010638,2.68151596 C9.60949802,2.88130742 9.35292088,3.21253557 9.2471126,3.60195496 C9.14130432,3.99137434 9.19498231,4.40690123 9.3962766,4.75664894 Z M18.3730053,1.54055851 C18.3730053,0.713430851 19.068484,0.00864361702 19.8929521,0.00864361702 C20.7406915,0.00864361702 21.4368351,0.695478723 21.4368351,1.54055851 L21.4368351,8.71343085 C21.4368351,9.56117021 20.7526596,10.2453457 19.8929521,10.2573138 C19.4862702,10.2553904 19.0971506,10.0913455 18.8118352,9.80153693 C18.5265198,9.51172836 18.3685745,9.12009319 18.3730053,8.71343085 L18.3730053,1.54055851 L18.3730053,1.54055851 Z M27.7613032,3.23670213 C28.1838596,2.50679118 29.1162671,2.25468482 29.8490691,2.67220745 C30.2051849,2.87005019 30.4661039,3.20355925 30.5724346,3.59681997 C30.6787652,3.99008068 30.6214603,4.4096318 30.4135638,4.7599734 L26.818484,10.9860372 C26.4128989,11.7114362 25.4567819,11.9714096 24.7307181,11.5505319 C24.0019947,11.1263298 23.7632979,10.1795213 24.1755319,9.45146277 L27.7613032,3.23670213 Z M35.0658245,9.39694149 L28.8271277,12.9926862 C28.0984043,13.4049202 27.8477394,14.3390957 28.262633,15.0797872 C28.6985877,15.7927415 29.6178898,16.0372056 30.3503989,15.6349734 L36.5884309,12.0398936 C36.9376407,11.8384222 37.1916347,11.5055065 37.2937012,11.1154801 C37.3957678,10.7254536 37.3374067,10.3107973 37.1316489,9.96409574 C36.7174202,9.22406915 35.7799202,8.96143617 35.0658245,9.39694149 Z M38.2699468,18.3856383 C38.6763638,18.381625 39.0671331,18.542126 39.3533981,18.830645 C39.6396631,19.1191641 39.7970943,19.5111802 39.7898936,19.9175532 C39.79239,20.3214283 39.633055,20.7094849 39.3474668,20.9950731 C39.0618785,21.2806614 38.6738219,21.4399964 38.2699468,21.4375289 L31.0884309,21.4375289 C30.2465136,21.4309385 29.5669572,20.747526 29.5651596,19.9055851 C29.5651596,19.0698138 30.2613032,18.3856383 31.0884309,18.3856383 L38.2699468,18.3856383 L38.2699468,18.3856383 Z" id="形状"></path>
            </g>
        </g>
    </g>
</svg>