<?xml version="1.0" encoding="UTF-8"?>
<svg width="20px" height="20px" viewBox="0 0 20 20" version="1.1" xmlns="http://www.w3.org/2000/svg" xmlns:xlink="http://www.w3.org/1999/xlink">
    <g id="icon-loading-g" stroke="none" stroke-width="1" fill="none" fill-rule="evenodd">
        <g id="编组" transform="translate(-170.000000, -15.000000)" fill="#FFFFFF" fill-rule="nonzero">
            <path d="M189.039883,22.1789609 L184.982227,22.1789609 C184.464573,22.1789609 184.045864,21.7595396 184.045864,21.2425525 C184.045864,20.7256084 184.464597,20.3061894 184.982227,20.3061894 L186.611116,20.3061894 C185.141766,18.229963 182.725566,16.8727882 179.988162,16.8727882 C175.506166,16.8727882 171.872803,20.5061755 171.872803,24.9881002 C171.872803,29.4700726 175.50619,33.1034361 179.988162,33.1034361 C184.470135,33.1034361 188.103498,29.4700487 188.103498,24.9881002 C188.103498,24.4711561 188.52221,24.0517371 189.03984,24.0517371 C189.556827,24.0517371 189.976272,24.4711585 189.976272,24.9881002 C189.976272,30.5043574 185.503999,34.9762243 179.988148,34.9762243 C174.472225,34.9762243 170,30.5043813 170,24.9881002 C170,19.4718668 174.472225,15 179.988148,15 C183.335831,15 186.292691,16.6505028 188.103484,19.1792579 L188.103484,17.4970358 C188.103484,16.9800487 188.522196,16.5606489 189.039825,16.5606489 C189.556812,16.5606489 189.976272,16.9800487 189.976272,17.4970358 L189.976272,21.2425644 C189.976272,21.759542 189.556822,22.1789609 189.039883,22.1789609 Z" id="路径"></path>
        </g>
    </g>
</svg>