<?xml version="1.0" encoding="UTF-8"?>
<svg width="12px" height="12px" viewBox="0 0 12 12" version="1.1" xmlns="http://www.w3.org/2000/svg" xmlns:xlink="http://www.w3.org/1999/xlink">
    <g id="页面-1" stroke="none" stroke-width="1" fill="none" fill-rule="evenodd">
        <g id="个人中心-xrp提币" transform="translate(-1031.000000, -157.000000)" fill="#81A0CB">
            <g id="编组" transform="translate(538.000000, 138.000000)">
                <g id="关闭" transform="translate(489.000000, 15.000000)">
                    <path d="M11,9 L16,9 C16.5522847,9 17,9.44771525 17,10 C17,10.5522847 16.5522847,11 16,11 L11,11 L11,16 C11,16.5522847 10.5522847,17 10,17 C9.44771525,17 9,16.5522847 9,16 L9,11 L4,11 C3.44771525,11 3,10.5522847 3,10 C3,9.44771525 3.44771525,9 4,9 L9,9 L9,4 C9,3.44771525 9.44771525,3 10,3 C10.5522847,3 11,3.44771525 11,4 L11,9 Z" id="形状结合" fill="#6F8EB8" transform="translate(10.000000, 10.000000) rotate(-315.000000) translate(-10.000000, -10.000000) "></path>
                </g>
            </g>
        </g>
    </g>
</svg>